<svg xmlns="http://www.w3.org/2000/svg" viewBox="0 0 1000 1000" fill="none">
  <path d="M 466.59 548.47 C 469.87 544.34 473.27 540.46 476.86 536.61 C 480.45 532.77 484.32 529.76 488.14 525.40 C 491.95 521.05 496.07 515.52 499.74 510.47 C 503.42 505.41 507.00 500.42 510.19 495.05 C 513.38 489.67 516.10 483.97 518.90 478.22 C 521.69 472.48 524.08 466.25 526.98 460.59 C 529.88 454.94 532.59 449.15 536.29 444.28 C 539.99 439.41 544.34 434.87 549.17 431.37 C 554.01 427.87 559.57 425.11 565.30 423.28 C 571.02 421.45 577.32 420.61 583.52 420.39 C 589.73 420.17 596.13 421.07 602.54 421.95 C 608.94 422.84 615.59 424.75 621.95 425.73 C 628.31 426.70 634.62 427.73 640.70 427.83 C 646.78 427.93 652.71 427.60 658.42 426.31 C 664.14 425.03 669.60 422.91 675.00 420.11 C 680.40 417.31 685.56 413.14 690.83 409.51 C 696.10 405.89 701.34 401.38 706.63 398.37 C 711.93 395.35 717.24 392.87 722.60 391.44 C 727.96 390.00 733.16 389.89 738.80 389.78 C 744.43 389.67 750.37 390.18 756.39 390.79 C 762.42 391.41 768.78 392.71 774.96 393.48 C 781.14 394.24 787.24 395.23 793.48 395.36 C 799.73 395.49 806.00 395.24 812.44 394.26 C 818.88 393.28 825.67 391.41 832.10 389.51 C 838.54 387.60 844.97 385.42 851.06 382.85 C 857.14 380.27 863.00 377.36 868.59 374.05 C 874.19 370.75 879.50 367.03 884.63 363.01 C 889.75 358.98 894.68 354.62 899.33 349.89 C 903.99 345.17 908.26 339.87 912.56 334.67 C 916.85 329.47 920.93 324.02 925.10 318.68 C 929.27 313.35 933.41 307.99 937.57 302.64 C 941.73 297.30 945.98 292.01 950.07 286.62 C 954.15 281.22 958.19 275.78 962.09 270.26 C 965.99 264.75 970.01 259.26 973.47 253.54 C 976.93 247.82 980.76 241.34 982.85 235.95 C 984.94 230.56 986.01 225.38 986.00 221.20 C 985.99 217.01 984.85 213.47 982.80 210.84 C 980.75 208.20 977.65 206.36 973.68 205.38 C 969.71 204.41 964.63 204.22 959.00 204.99 C 953.37 205.76 946.29 208.07 939.91 210.01 C 933.53 211.94 927.11 214.37 920.73 216.61 C 914.35 218.85 908.00 221.19 901.62 223.46 C 895.25 225.73 888.88 227.99 882.50 230.23 C 876.11 232.47 869.72 234.70 863.32 236.89 C 856.92 239.08 850.50 241.21 844.09 243.37 C 837.67 245.53 831.27 247.72 824.85 249.87 C 818.44 252.02 812.03 254.20 805.59 256.27 C 799.15 258.34 792.68 260.31 786.21 262.31 C 779.75 264.31 773.28 266.32 766.80 268.27 C 760.32 270.21 753.83 272.13 747.32 273.99 C 740.82 275.85 734.30 277.66 727.76 279.42 C 721.23 281.19 714.67 282.88 708.12 284.59 C 701.57 286.30 695.03 288.05 688.46 289.68 C 681.89 291.32 675.30 292.87 668.70 294.41 C 662.11 295.95 655.50 297.43 648.90 298.92 C 642.29 300.42 635.69 301.93 629.08 303.39 C 622.47 304.86 615.85 306.31 609.23 307.71 C 602.60 309.11 595.96 310.44 589.33 311.79 C 582.69 313.13 576.05 314.46 569.41 315.78 C 562.77 317.10 556.13 318.43 549.48 319.70 C 542.83 320.97 536.17 322.18 529.51 323.40 C 522.85 324.62 516.19 325.85 509.53 327.03 C 502.86 328.21 496.18 329.31 489.51 330.48 C 482.85 331.65 476.19 332.87 469.52 334.03 C 462.85 335.19 456.18 336.32 449.51 337.45 C 442.84 338.59 436.17 339.72 429.50 340.84 C 422.82 341.97 415.61 342.57 409.47 344.19 C 403.32 345.80 397.26 347.97 392.63 350.52 C 388.01 353.07 384.21 356.12 381.70 359.51 C 379.20 362.89 377.91 366.61 377.60 370.84 C 377.29 375.07 378.00 379.81 379.84 384.89 C 381.68 389.97 385.35 395.81 388.65 401.33 C 391.96 406.85 396.78 412.64 399.67 418.01 C 402.56 423.38 405.04 428.88 406.00 433.57 C 406.97 438.25 406.63 442.77 405.46 446.14 C 404.29 449.50 401.90 452.33 398.97 453.75 C 396.04 455.18 392.15 455.59 387.88 454.69 C 383.61 453.79 378.26 451.30 373.36 448.37 C 368.47 445.43 363.44 440.96 358.51 437.08 C 353.57 433.19 348.46 428.37 343.77 425.07 C 339.07 421.76 334.28 418.61 330.33 417.23 C 326.37 415.86 322.76 415.80 320.05 416.81 C 317.34 417.82 315.16 420.14 314.04 423.30 C 312.93 426.45 312.59 430.90 313.38 435.76 C 314.16 440.62 316.23 446.75 318.76 452.48 C 321.28 458.20 325.40 464.20 328.55 470.10 C 331.70 476.00 335.11 481.85 337.66 487.87 C 340.21 493.89 342.48 500.08 343.83 506.22 C 345.19 512.36 346.02 518.73 345.77 524.69 C 345.52 530.65 344.44 536.51 342.33 541.99 C 340.22 547.48 336.90 552.85 333.13 557.62 C 329.35 562.39 324.72 566.97 319.68 570.62 C 314.64 574.27 308.81 577.34 302.91 579.52 C 297.01 581.71 290.55 583.03 284.30 583.72 C 278.05 584.40 271.60 584.42 265.41 583.65 C 259.23 582.88 253.04 581.37 247.17 579.08 C 241.30 576.78 235.61 573.47 230.21 569.90 C 224.81 566.33 219.74 562.03 214.77 557.65 C 209.80 553.27 205.05 548.48 200.40 543.62 C 195.76 538.76 191.38 533.54 186.90 528.47 C 182.42 523.41 178.21 517.81 173.50 513.25 C 168.79 508.68 163.79 504.32 158.64 501.07 C 153.50 497.82 148.11 495.40 142.63 493.75 C 137.15 492.11 131.53 491.25 125.75 491.21 C 119.96 491.18 113.98 492.01 107.92 493.54 C 101.85 495.08 95.48 497.81 89.34 500.43 C 83.20 503.05 77.16 506.30 71.07 509.26 C 64.99 512.22 58.86 515.14 52.85 518.19 C 46.84 521.24 40.31 524.08 35.03 527.54 C 29.74 531.00 24.62 535.03 21.13 538.96 C 17.63 542.89 15.24 546.99 14.05 551.13 C 12.87 555.27 12.86 559.47 14.00 563.79 C 15.14 568.11 17.49 572.62 20.87 577.07 C 24.26 581.52 29.32 586.27 34.30 590.48 C 39.28 594.69 45.26 598.40 50.77 602.34 C 56.27 606.27 61.81 610.19 67.34 614.10 C 72.87 618.01 78.43 621.88 83.96 625.79 C 89.50 629.69 95.01 633.62 100.55 637.52 C 106.09 641.42 111.66 645.28 117.19 649.19 C 122.73 653.09 128.21 657.07 133.74 660.97 C 139.28 664.88 144.87 668.70 150.39 672.61 C 155.92 676.53 161.38 680.54 166.89 684.47 C 172.41 688.40 177.96 692.28 183.47 696.20 C 188.99 700.12 194.48 704.06 200.00 707.98 C 205.51 711.90 211.04 715.79 216.56 719.71 C 222.08 723.62 227.60 727.53 233.11 731.46 C 238.61 735.39 244.09 739.36 249.60 743.28 C 255.12 747.20 260.68 751.06 266.19 754.98 C 271.71 758.90 277.17 762.91 282.70 766.83 C 288.23 770.74 293.72 774.75 299.36 778.45 C 304.99 782.15 310.93 786.28 316.49 789.04 C 322.05 791.80 328.03 794.05 332.74 795.01 C 337.45 795.98 341.54 795.92 344.73 794.82 C 347.93 793.72 350.34 791.54 351.91 788.42 C 353.48 785.29 354.25 781.03 354.13 776.07 C 354.01 771.10 352.69 764.74 351.19 758.63 C 349.68 752.51 346.96 745.81 345.13 739.38 C 343.29 732.94 341.28 726.47 340.18 720.04 C 339.08 713.61 338.33 707.04 338.52 700.78 C 338.72 694.52 339.62 688.33 341.34 682.49 C 343.07 676.65 345.70 671.10 348.85 665.74 C 352.01 660.39 355.95 655.20 360.28 650.38 C 364.61 645.56 369.73 641.13 374.84 636.82 C 379.96 632.51 385.54 628.57 390.97 624.55 C 396.41 620.52 402.08 616.76 407.46 612.68 C 412.84 608.61 418.28 604.51 423.25 600.10 C 428.21 595.70 433.12 590.55 437.23 586.26 C 441.35 581.97 444.60 578.52 447.93 574.37 C 451.26 570.22 454.11 565.67 457.22 561.35 C 460.33 557.03 463.32 552.59 466.59 548.47 Z" stroke="#fff" stroke-width="14" stroke-linecap="round" stroke-linejoin="round"/>
</svg>
