<svg xmlns="http://www.w3.org/2000/svg" viewBox="0 0 1000 1000" fill="none">
  <path d="M 415.00 469.75 C 422.28 467.53 429.59 465.21 436.27 462.04 C 442.95 458.87 448.35 455.30 455.08 450.74 C 461.81 446.18 469.87 440.66 476.66 434.68 C 483.45 428.71 489.66 421.87 495.82 414.89 C 501.98 407.92 507.56 399.98 513.63 392.82 C 519.70 385.66 525.63 378.34 532.23 371.95 C 538.84 365.55 545.81 359.60 553.25 354.43 C 560.68 349.26 568.61 344.40 576.86 340.93 C 585.11 337.45 594.42 334.51 602.74 333.56 C 611.07 332.61 619.92 333.35 626.83 335.20 C 633.75 337.05 640.08 340.64 644.24 344.66 C 648.40 348.67 650.95 353.65 651.80 359.29 C 652.65 364.93 651.83 371.75 649.34 378.50 C 646.85 385.25 642.13 392.92 636.85 399.79 C 631.56 406.66 624.53 413.38 617.63 419.71 C 610.72 426.05 602.83 431.79 595.41 437.81 C 587.99 443.82 580.55 449.83 573.08 455.80 C 565.62 461.76 558.08 467.65 550.61 473.61 C 543.14 479.57 535.71 485.58 528.24 491.55 C 520.78 497.52 513.30 503.47 505.83 509.44 C 498.36 515.40 490.93 521.43 483.42 527.34 C 475.92 533.25 468.54 539.67 460.81 544.91 C 453.08 550.15 445.09 555.14 437.04 558.77 C 428.99 562.41 420.82 565.05 412.52 566.71 C 404.23 568.36 395.84 568.94 387.27 568.70 C 378.70 568.46 370.01 567.10 361.13 565.26 C 352.25 563.43 343.05 560.22 334.00 557.71 C 324.94 555.19 315.94 552.24 306.79 550.19 C 297.64 548.13 288.41 546.44 279.10 545.37 C 269.79 544.29 260.32 543.62 250.95 543.72 C 241.58 543.81 232.13 544.62 222.87 545.94 C 213.60 547.25 204.39 549.20 195.37 551.61 C 186.34 554.02 177.41 556.95 168.71 560.39 C 160.02 563.84 151.44 567.78 143.20 572.28 C 134.96 576.78 126.97 581.95 119.27 587.38 C 111.57 592.81 104.11 598.68 96.98 604.87 C 89.85 611.05 82.96 617.60 76.52 624.49 C 70.07 631.37 63.98 638.66 58.32 646.20 C 52.67 653.75 47.36 661.65 42.60 669.76 C 37.84 677.87 33.57 686.28 29.75 694.86 C 25.94 703.43 22.31 712.30 19.69 721.21 C 17.06 730.12 14.64 739.71 14.00 748.29 C 13.36 756.88 13.95 765.60 15.86 772.73 C 17.77 779.87 21.15 786.14 25.48 791.10 C 29.80 796.07 35.30 799.91 41.81 802.53 C 48.32 805.15 56.25 806.55 64.55 806.80 C 72.85 807.04 82.52 805.59 91.64 804.00 C 100.76 802.41 110.09 799.61 119.27 797.27 C 128.46 794.94 137.60 792.37 146.78 789.98 C 155.95 787.59 165.15 785.25 174.34 782.93 C 183.54 780.61 192.75 778.35 201.95 776.06 C 211.15 773.78 220.36 771.53 229.56 769.25 C 238.76 766.96 247.97 764.68 257.17 762.36 C 266.38 760.04 275.58 757.72 284.76 755.34 C 293.95 752.97 303.11 750.49 312.29 748.09 C 321.47 745.70 330.66 743.30 339.86 740.97 C 349.06 738.64 358.27 736.39 367.48 734.11 C 376.69 731.83 385.90 729.57 395.10 727.26 C 404.30 724.96 413.49 722.62 422.67 720.27 C 431.86 717.91 441.04 715.52 450.21 713.13 C 459.39 710.74 468.55 708.32 477.72 705.93 C 486.90 703.54 496.07 701.13 505.27 698.79 C 514.46 696.44 523.67 694.17 532.89 691.88 C 542.10 689.59 551.32 687.33 560.53 685.04 C 569.75 682.75 578.98 680.49 588.19 678.15 C 597.40 675.82 606.60 673.44 615.79 671.04 C 624.98 668.65 634.15 666.18 643.33 663.78 C 652.52 661.37 661.70 658.94 670.89 656.60 C 680.09 654.25 689.31 652.02 698.51 649.73 C 707.72 647.44 716.92 645.18 726.11 642.87 C 735.31 640.56 744.50 638.22 753.69 635.88 C 762.87 633.54 772.05 631.19 781.22 628.82 C 790.40 626.44 799.56 624.05 808.73 621.63 C 817.90 619.22 827.06 616.72 836.24 614.33 C 845.43 611.94 854.64 609.65 863.85 607.31 C 873.05 604.98 882.42 602.99 891.47 600.32 C 900.51 597.65 909.72 594.92 918.12 591.32 C 926.52 587.71 934.76 583.62 941.86 578.68 C 948.97 573.74 955.39 568.10 960.77 561.69 C 966.14 555.28 970.57 548.07 974.10 540.22 C 977.63 532.37 980.08 523.51 981.95 514.60 C 983.81 505.68 984.61 496.14 985.28 486.72 C 985.96 477.30 985.93 467.64 986.00 458.08 C 986.07 448.53 985.82 438.96 985.72 429.40 C 985.62 419.84 985.55 410.28 985.41 400.72 C 985.26 391.16 985.03 381.60 984.85 372.05 C 984.66 362.49 984.47 352.93 984.29 343.38 C 984.10 333.82 983.91 324.27 983.72 314.71 C 983.54 305.15 983.39 295.59 983.16 286.04 C 982.94 276.49 983.07 266.76 982.36 257.38 C 981.64 248.01 980.96 238.11 978.87 229.81 C 976.78 221.52 973.49 213.41 969.80 207.62 C 966.12 201.84 961.55 197.48 956.77 195.08 C 951.99 192.67 946.75 192.04 941.11 193.20 C 935.48 194.37 928.99 197.51 922.94 202.06 C 916.90 206.61 910.42 213.48 904.85 220.52 C 899.27 227.56 894.15 236.12 889.48 244.31 C 884.81 252.51 880.32 261.15 876.83 269.70 C 873.34 278.24 870.51 286.90 868.51 295.59 C 866.52 304.28 865.30 313.02 864.85 321.85 C 864.41 330.68 864.73 339.59 865.85 348.57 C 866.96 357.54 869.15 366.67 871.54 375.70 C 873.94 384.74 877.56 393.70 880.22 402.76 C 882.87 411.81 886.00 421.19 887.46 430.01 C 888.92 438.84 889.69 447.79 888.99 455.70 C 888.28 463.62 886.39 470.92 883.24 477.51 C 880.08 484.09 875.69 490.03 870.07 495.21 C 864.46 500.38 857.32 504.84 849.55 508.54 C 841.78 512.24 832.44 515.19 823.45 517.39 C 814.45 519.59 804.60 521.21 795.58 521.71 C 786.57 522.21 777.34 521.98 769.37 520.39 C 761.40 518.81 753.83 516.04 747.74 512.21 C 741.65 508.38 736.55 503.45 732.82 497.43 C 729.08 491.41 726.57 483.96 725.33 476.07 C 724.08 468.18 724.37 458.94 725.34 450.06 C 726.31 441.19 728.71 431.86 731.15 422.83 C 733.58 413.79 736.85 404.80 739.95 395.85 C 743.05 386.90 746.47 378.04 749.75 369.14 C 753.03 360.25 756.40 351.38 759.63 342.48 C 762.86 333.58 766.42 324.68 769.11 315.72 C 771.80 306.77 774.59 297.46 775.77 288.75 C 776.95 280.04 777.34 271.09 776.19 263.47 C 775.04 255.85 772.56 248.77 768.86 243.04 C 765.16 237.30 760.12 232.57 753.99 229.06 C 747.87 225.55 740.19 223.15 732.12 221.98 C 724.06 220.80 714.65 221.14 705.60 222.00 C 696.55 222.86 687.05 225.14 677.82 227.16 C 668.58 229.19 659.39 231.80 650.18 234.15 C 640.97 236.50 631.78 238.91 622.57 241.26 C 613.36 243.61 604.15 245.93 594.93 248.24 C 585.71 250.55 576.49 252.83 567.27 255.13 C 558.05 257.42 548.83 259.69 539.62 262.02 C 530.41 264.35 521.18 266.68 511.99 269.11 C 502.81 271.55 493.56 273.81 484.53 276.62 C 475.51 279.42 466.59 282.47 457.87 285.93 C 449.15 289.40 440.61 293.23 432.23 297.39 C 423.85 301.55 415.63 306.04 407.60 310.89 C 399.57 315.74 391.77 320.98 384.07 326.50 C 376.37 332.01 368.89 338.04 361.40 343.97 C 353.92 349.90 346.33 355.84 339.17 362.08 C 332.00 368.32 324.60 374.61 318.42 381.40 C 312.23 388.19 306.30 395.49 302.07 402.82 C 297.83 410.15 294.43 418.03 293.00 425.38 C 291.58 432.74 291.67 440.41 293.52 446.93 C 295.37 453.45 299.15 459.71 304.09 464.51 C 309.03 469.31 315.86 473.15 323.16 475.75 C 330.45 478.34 340.06 479.45 347.85 480.08 C 355.65 480.70 362.48 480.26 369.94 479.47 C 377.40 478.68 385.10 476.97 392.61 475.35 C 400.12 473.73 407.73 471.96 415.00 469.75 Z" stroke="#fff" stroke-width="14" stroke-linecap="round" stroke-linejoin="round"/>
</svg>
